<svg width="350" height="350" viewBox="0 0 350 350" fill="none" xmlns="http://www.w3.org/2000/svg">
<rect width="350" height="350" fill="white"/>
<rect x="27" y="176" width="295" height="18" rx="9" fill="#DBDCDE"/>
<rect x="27" y="156" width="51" height="12" rx="6" fill="#DBDCDE"/>
<path d="M38 185H133" stroke="#F5F3F3" stroke-width="2" fill="none" />
<path d="M145 185H172" stroke="#F5F3F3" stroke-width="2" fill="none" />
<path d="M140.283 183.339V183.09V183.04H140.333H141.083H141.133V183.09V186.099C141.133 186.274 141.185 186.427 141.288 186.56C141.388 186.688 141.533 186.754 141.733 186.754C141.962 186.754 142.13 186.681 142.246 186.539L142.247 186.539C142.368 186.394 142.454 186.165 142.501 185.845L142.501 185.845C142.55 185.524 142.574 185.112 142.574 184.608C142.574 184.315 142.532 184.027 142.446 183.743L142.446 183.743C142.362 183.458 142.235 183.191 142.063 182.942L142.063 182.942C141.895 182.694 141.681 182.475 141.421 182.285C141.162 182.096 140.857 181.947 140.506 181.84L140.505 181.84C140.157 181.731 139.761 181.676 139.314 181.676C138.765 181.676 138.275 181.756 137.843 181.916L137.843 181.916C137.413 182.073 137.048 182.303 136.747 182.606C136.448 182.907 136.22 183.273 136.062 183.706C135.906 184.137 135.828 184.628 135.828 185.18C135.828 185.741 135.906 186.238 136.062 186.671C136.22 187.103 136.452 187.467 136.757 187.763C137.065 188.059 137.446 188.284 137.902 188.437L137.902 188.437C138.358 188.593 138.885 188.671 139.484 188.671C139.74 188.671 139.993 188.648 140.242 188.602C140.494 188.556 140.715 188.505 140.906 188.45C141.099 188.395 141.238 188.354 141.322 188.327L141.37 188.312L141.385 188.36L141.583 188.972L141.597 189.017L141.554 189.034C141.405 189.093 141.211 189.151 140.974 189.209C140.739 189.267 140.488 189.315 140.22 189.353C140.22 189.353 140.22 189.353 140.22 189.353L140.213 189.303C139.949 189.341 139.696 189.36 139.456 189.36C138.734 189.36 138.097 189.267 137.543 189.08L140.283 183.339ZM140.283 183.339C140.236 183.271 140.167 183.21 140.081 183.155C139.949 183.068 139.784 183.005 139.586 182.965C139.387 182.921 139.168 182.911 138.928 182.934L138.927 182.934C138.658 182.961 138.406 183.032 138.171 183.148C137.939 183.262 137.736 183.414 137.562 183.605L137.562 183.606C137.39 183.797 137.256 184.02 137.16 184.274C137.063 184.529 137.015 184.809 137.015 185.113C137.015 185.433 137.055 185.731 137.134 186.009L137.134 186.01C137.216 186.285 137.336 186.529 137.496 186.741L137.496 186.741L137.496 186.741C137.659 186.952 137.86 187.118 138.1 187.241L138.1 187.241C138.341 187.363 138.618 187.428 138.931 187.44L138.931 187.44C139.204 187.449 139.438 187.419 139.632 187.347M140.283 183.339L139.632 187.347M139.632 187.347C139.826 187.276 139.985 187.181 140.106 187.059C140.206 186.962 140.285 186.859 140.343 186.751C140.386 186.915 140.477 187.05 140.618 187.154C140.777 187.271 140.959 187.355 141.163 187.405C141.364 187.455 141.549 187.48 141.719 187.48C142.101 187.48 142.41 187.394 142.641 187.217C142.87 187.042 143.039 186.812 143.148 186.529L143.149 186.529C143.256 186.247 143.327 185.939 143.36 185.604C143.393 185.272 143.41 184.944 143.41 184.621C143.41 184.158 143.324 183.708 143.152 183.271C142.982 182.835 142.726 182.442 142.384 182.093C142.044 181.742 141.621 181.464 141.116 181.26C140.611 181.053 140.024 180.95 139.357 180.95C138.671 180.95 138.055 181.045 137.508 181.236L137.508 181.236C136.965 181.426 136.501 181.704 136.118 182.069L136.118 182.069C135.738 182.431 135.447 182.873 135.247 183.391L135.247 183.392C135.049 183.911 134.95 184.498 134.95 185.153C134.95 185.83 135.047 186.433 135.243 186.961C135.439 187.489 135.728 187.936 136.111 188.301C136.494 188.666 136.967 188.942 137.527 189.128L139.632 187.347C139.632 187.347 139.632 187.347 139.632 187.347ZM138.413 183.877L138.413 183.876C138.594 183.75 138.814 183.686 139.074 183.686C139.352 183.686 139.583 183.727 139.768 183.808C139.949 183.887 140.087 184.024 140.182 184.223C140.276 184.422 140.325 184.704 140.325 185.074C140.325 185.438 140.281 185.737 140.194 185.971C140.108 186.204 139.972 186.375 139.787 186.489C139.602 186.602 139.356 186.661 139.046 186.661C138.748 186.661 138.516 186.587 138.346 186.443C138.172 186.294 138.046 186.101 137.969 185.86C137.89 185.615 137.851 185.353 137.851 185.074C137.851 184.823 137.899 184.593 137.995 184.382C138.093 184.17 138.232 184.002 138.413 183.877Z" fill="#F5F3F3" stroke="#F5F3F3" stroke-width="0.1"/>
</svg>
