<svg width="350" height="350" viewBox="0 0 350 350" fill="none" xmlns="http://www.w3.org/2000/svg">
<rect width="350" height="350" fill="white"/>
<rect x="27" y="176" width="295" height="18" rx="9" fill="#DBDCDE"/>
<rect x="27" y="156" width="51" height="12" rx="6" fill="#DBDCDE"/>
<path d="M38 185H58" stroke="#F5F3F3" stroke-width="2" fill="none" />
<path d="M71 185L200 185" stroke="#F5F3F3" stroke-width="2" fill="none" />
<path d="M61.02 188.925L61.0206 188.925C61.1323 188.855 61.2215 188.763 61.287 188.648C61.3559 188.532 61.3902 188.405 61.3902 188.268C61.3902 188.06 61.3166 187.88 61.1718 187.732C61.0269 187.583 60.8496 187.507 60.6451 187.507C60.4406 187.507 60.2633 187.583 60.1184 187.732C59.9735 187.88 59.9 188.06 59.9 188.268C59.9 188.475 59.9735 188.655 60.1184 188.804C60.2633 188.952 60.4406 189.028 60.6451 189.028C60.7818 189.028 60.9076 188.994 61.02 188.925ZM61.02 184.741L61.02 184.741L61.0206 184.741C61.1324 184.671 61.2215 184.578 61.287 184.464C61.3559 184.348 61.3902 184.22 61.3902 184.083C61.3902 183.876 61.3166 183.696 61.1718 183.547C61.0269 183.399 60.8496 183.323 60.6451 183.323C60.4406 183.323 60.2633 183.399 60.1184 183.547C59.9735 183.696 59.9 183.876 59.9 184.083C59.9 184.29 59.9735 184.471 60.1184 184.619C60.2633 184.768 60.4406 184.844 60.6451 184.844C60.7818 184.844 60.9076 184.81 61.02 184.741ZM65.4994 181.025L65.5324 180.9H65.4027H64.6286H64.5515L64.5319 180.975L62.1665 189.975L62.1335 190.1H62.2632H63.0373H63.1144L63.134 190.025L65.4994 181.025ZM69.0967 181.025L69.1297 180.9H69H68.2259H68.1488L68.1292 180.975L65.7638 189.975L65.7308 190.1H65.8605H66.6346H66.7118L66.7314 190.025L69.0967 181.025Z" fill="#F5F3F3" stroke="#F5F3F3" stroke-width="0.2"/>
</svg>
