<svg width="350" height="350" viewBox="0 0 350 350" fill="none" xmlns="http://www.w3.org/2000/svg">
<rect width="350" height="350" fill="white"/>
<path fill-rule="evenodd" clip-rule="evenodd" d="M194.273 153.087C194.117 153.152 192.604 154.605 190.911 156.316L187.832 159.426L186.377 158.845C184.013 157.901 181.769 157.3 179.142 156.906C177.059 156.593 172.665 156.623 170.487 156.964C164.709 157.869 159.614 160.192 154.786 164.122C153.259 165.364 150.353 168.32 149.12 169.885C147.774 171.593 146.127 174.108 146.037 174.593C145.91 175.277 146.082 175.73 147.01 177.148C149.726 181.304 153.623 185.274 157.55 187.89C158.204 188.325 158.763 188.7 158.79 188.721C158.818 188.742 157.611 190.01 156.107 191.538C153.766 193.917 153.362 194.378 153.295 194.746C153.17 195.437 153.329 195.979 153.796 196.451C154.262 196.923 154.796 197.084 155.481 196.959C155.861 196.89 158.053 194.711 176.224 176.329C191.155 161.225 196.575 155.674 196.667 155.39C196.919 154.619 196.639 153.796 195.947 153.273C195.604 153.014 194.691 152.912 194.273 153.087ZM178.859 160.593C180.806 160.893 182.97 161.467 184.689 162.138L185.022 162.268L181.311 166.029L181.004 165.807C180.414 165.382 178.568 164.55 177.668 164.304C176.463 163.975 173.766 163.941 172.583 164.242C170.508 164.769 168.856 165.715 167.348 167.241C165.84 168.767 164.903 170.443 164.386 172.539C164.079 173.779 164.11 176.368 164.445 177.627C164.697 178.574 165.454 180.308 165.925 181.015L166.156 181.364L161.545 186.027L160.471 185.343C156.708 182.95 152.886 179.299 150.523 175.839L149.942 174.989L150.511 174.157C152.522 171.219 156.008 167.68 158.967 165.574C162.961 162.73 167.666 160.922 172.352 160.429C173.76 160.28 177.434 160.373 178.859 160.593ZM192.883 164.639C192.214 165.318 191.669 165.925 191.673 165.987C191.676 166.049 192.123 166.445 192.665 166.867C194.983 168.673 198.043 171.968 199.699 174.443L200.064 174.987L199.604 175.673C197.649 178.585 194.262 182.065 191.27 184.235C186.151 187.946 180.165 189.84 174.211 189.63C172.351 189.564 171.779 189.5 169.865 189.139L168.863 188.95L167.402 190.425C166.342 191.495 165.984 191.924 166.097 191.988C166.413 192.167 169.102 192.777 170.641 193.019C172.766 193.353 177.079 193.38 179.142 193.073C186.452 191.986 192.548 188.797 198.13 183.139C200.124 181.118 201.431 179.517 202.892 177.306C204.344 175.107 204.35 174.911 203.021 172.856C201.758 170.905 200.018 168.757 198.185 166.891C196.626 165.303 194.468 163.404 194.224 163.404C194.155 163.404 193.552 163.96 192.883 164.639ZM176.619 167.87C177.318 168.051 178.632 168.6 178.632 168.711C178.632 168.726 176.418 170.979 173.712 173.716L168.792 178.694L168.491 178.092C168.075 177.261 167.75 175.902 167.753 174.999C167.765 170.309 172.216 166.73 176.619 167.87ZM183.806 173.825L182.239 175.414L182.083 176.32C181.902 177.373 181.257 178.777 180.57 179.611C179.503 180.907 177.877 181.878 176.318 182.152L175.422 182.31L173.83 183.921C172.954 184.807 172.269 185.563 172.306 185.602C172.443 185.74 174.176 185.992 175.018 185.996C177.888 186.009 180.53 184.879 182.654 182.73C184.844 180.513 185.81 178.188 185.821 175.104C185.826 173.665 185.642 172.236 185.451 172.236C185.408 172.236 184.668 172.951 183.806 173.825Z" fill="#DBDCDE" stroke="#DBDCDE" stroke-width="0.5"/>
</svg>
