<?xml version="1.0" encoding="utf-8"?>
<!-- Generator: Adobe Illustrator 16.0.0, SVG Export Plug-In . SVG Version: 6.00 Build 0)  -->
<!DOCTYPE svg PUBLIC "-//W3C//DTD SVG 1.1//EN" "http://www.w3.org/Graphics/SVG/1.1/DTD/svg11.dtd">
<svg version="1.1" id="Layer_1" xmlns="http://www.w3.org/2000/svg" xmlns:xlink="http://www.w3.org/1999/xlink" x="0px" y="0px"
	 width="350px" height="350px" viewBox="0 0 350 350" enable-background="new 0 0 350 350" xml:space="preserve">
<g>
	<path fill="#DBDCDE" d="M241.603,306.172c0,4.266-3.458,7.723-7.722,7.723H116.12c-4.265,0-7.722-3.457-7.722-7.723v0.469
		c0-4.264,3.457-7.723,7.722-7.723h117.761c4.264,0,7.722,3.459,7.722,7.723V306.172z"/>
	<g>
		<path fill="#DBDCDE" d="M299.878,255.078V66.886c0-16.994-13.785-30.78-30.783-30.78H80.9c-17,0-30.785,13.786-30.785,30.78
			v188.192c0,17.01,13.785,30.795,30.785,30.795h188.194c16.998,0,30.79-13.785,30.79-30.795H299.878z M70.198,213.172
			c0-46.861-0.001-93.723,0.002-140.585c0-10.354,5.507-15.895,15.805-15.895c58.774-0.003,117.548-0.003,176.321,0
			c10.348,0,15.854,5.503,15.854,15.848c0.003,43.416,0.002,86.831,0.002,130.247c0,0.945,0,1.891,0,3.461
			c-6.477-5.148-12.449-9.9-18.426-14.65c-2.388-1.898-4.731-3.855-7.178-5.678c-9.264-6.904-20.837-7.08-30.23-0.367
			c-9.688,6.922-19.29,13.963-28.936,20.941c-4.878,3.529-7.071,3.363-11.254-0.818c-9.052-9.049-18.098-18.102-27.152-27.148
			c-11.62-11.608-25.116-12.141-37.594-1.57c-15.096,12.787-30.236,25.523-45.359,38.279c-0.438,0.369-0.896,0.713-1.855,1.477
			C70.198,215.121,70.198,214.146,70.198,213.172z M278.178,249.674c-0.032,9.141-5.823,14.986-14.931,14.992
			c-29.73,0.02-59.461,0.008-89.19,0.008c-29.336,0-58.672,0.002-88.008-0.002c-10.331,0-15.534-5.533-15.979-15.844
			c-0.229-5.334,1.471-8.693,5.622-12.076c18.461-15.047,36.594-30.496,54.852-45.791c4.104-3.439,6.93-3.26,10.738,0.625
			c9.302,9.492,18.605,18.982,27.903,28.477c10.408,10.629,23.854,11.629,35.583,2.596c9.122-7.025,18.202-14.105,27.313-21.143
			c3.805-2.938,6.242-2.91,10.021,0.117c11.446,9.166,22.904,18.318,34.266,27.588c0.954,0.777,1.691,2.377,1.732,3.623
			C278.286,238.447,278.198,244.063,278.178,249.674z"/>
		<path fill-rule="evenodd" clip-rule="evenodd" fill="#DBDCDE" d="M229.719,127.324c-0.047,12.712-10.809,23.322-23.499,23.165
			c-12.665-0.157-22.966-10.496-23.051-23.136c-0.087-12.724,10.538-23.423,23.249-23.416
			C219.167,103.947,229.765,114.584,229.719,127.324z"/>
	</g>
</g>
</svg>
